<svg viewBox="0 0 24 24" xmlns="http://www.w3.org/2000/svg"><path d="m21.547 7h-3.29a.74281 .74281 0 0 0 -.65452 .39156s-1.312 2.417-1.734 3.231c-1.134 2.19-1.868 1.502-1.868.486v-3.504a1.10417 1.10417 0 0 0 -1.10417 -1.10417h-2.474a1.9818 1.9818 0 0 0 -1.751 .8125s1.256-.203 1.256 1.49c0 .42.022 1.627.041 2.64a.72943 .72943 0 0 1 -1.273 .50431 21.54029 21.54029 0 0 1 -2.4982 -4.54359 .69314 .69314 0 0 0 -.63041 -.4028c-.714 0-2.142 0-2.99 0a.508 .508 0 0 0 -.47969 .68481c.908 2.49 4.818 10.315 9.282 10.315h1.879a.74219 .74219 0 0 0 .74218 -.74219v-1.134a.7293 .7293 0 0 1 1.22868 -.5315l2.249 2.113a1.08911 1.08911 0 0 0 .74571 .29538h2.953c1.424 0 1.424-.988.648-1.753-.546-.538-2.518-2.617-2.518-2.617a1.01862 1.01862 0 0 1 -.07837 -1.32343c.637-.839 1.68-2.212 2.122-2.8.604-.804 1.698-2.507.199-2.507"/></svg>