<svg xmlns="http://www.w3.org/2000/svg" width="7.199" height="7.199" viewBox="0 0 203.18 203.18" shape-rendering="geometricPrecision" image-rendering="optimizeQuality" fill-rule="evenodd" clip-rule="evenodd"><g fill-rule="nonzero"><path d="m177.79 25.39h-25.4v-16.93h-16.93v50.8h16.93v-16.94h25.4v127h-152.4v-127h16.93v-16.93h-16.93c-9.35 0-16.93 7.58-16.93 16.93v127c0 9.35 7.58 16.94 16.93 16.94h152.4c9.35 0 16.94-7.59 16.94-16.94v-127c0-9.35-7.59-16.93-16.94-16.93"/><path d="m67.72 42.32h59.27v-16.93h-59.27v-16.93h-16.93v50.8h16.93z"/><path d="m76.19 76.19h-33.87v33.87h33.87z"/><path d="m118.52 76.19h-33.86v33.87h33.86z"/><path d="m126.99 110.06h33.87v-33.87h-33.87z"/><path d="m42.32 152.39h33.87v-33.87h-33.87z"/><path d="m84.66 152.39h33.86v-33.87h-33.86z"/></g></svg>