<svg xmlns="http://www.w3.org/2000/svg" viewBox="0 0 34.69 32.8"><g><g><path d="m16.35 32.8h-16.35v-32.8h22.49v4.76h-1.87v-2.89h-18.75v29.06h13.71l5.04-5.07v-7.82h1.87v8.59l-6.14 6.17"/><path d="m15.03 31.87l-.04-6.56h6.57v1.87h-4.68l.02 4.68-1.87.001"/></g><path d="M15.63,7.78a4.28,4.28,0,0,1,1.76.34,2.7,2.7,0,0,1,1.16,1A2.66,2.66,0,0,1,19,10.55,2.51,2.51,0,0,1,17.39,13a4.16,4.16,0,0,1-1.76.34h-1.3v2H12.21V7.78h3.42Zm-.13,3.86a1.43,1.43,0,0,0,1-.28,1,1,0,0,0,.34-.81,1,1,0,0,0-.34-.81,1.45,1.45,0,0,0-1-.29H14.33v2.19H15.5ZM20,7.78h3.54a5,5,0,0,1,2.18.46,3.44,3.44,0,0,1,1.48,1.31,3.66,3.66,0,0,1,.52,2,3.64,3.64,0,0,1-.52,2,3.44,3.44,0,0,1-1.48,1.31,5,5,0,0,1-2.18.46H20V7.78Zm3.46,5.8A2.14,2.14,0,0,0,25,13a1.94,1.94,0,0,0,.59-1.5A2,2,0,0,0,25,10a2.18,2.18,0,0,0-1.54-.55H22.1v4.11h1.34Zm7.49-4.16v1.65h3.31V12.7H30.93v2.57H28.82V7.78h5.87V9.42Z"/></g></svg>