<svg enable-background="new 0 0 56.693 56.693" viewBox="0 0 56.693 56.693" xmlns="http://www.w3.org/2000/svg"><path d="m52.22 25.852h-7.512v-7.51c0-.573-.465-1.039-1.037-1.039h-2.139c-.576 0-1.041.466-1.041 1.039v7.51h-7.512c-.572 0-1.039.467-1.039 1.041v2.139c0 .574.467 1.039 1.039 1.039h7.512v7.514c0 .574.465 1.039 1.041 1.039h2.139c.572 0 1.037-.465 1.037-1.039v-7.515h7.512c.572 0 1.039-.465 1.039-1.039v-2.139c0-.574-.467-1.04-1.039-1.04"/><path d="m26.974 32.438c-1.58-1.119-3.02-2.76-3.041-3.264 0-.918.082-1.357 2.141-2.961 2.662-2.084 4.128-4.824 4.128-7.719 0-2.625-.802-4.957-2.167-6.595h1.059c.219 0 .434-.068.609-.196l2.955-2.141c.367-.263.521-.732.381-1.161-.141-.428-.537-.72-.988-.72h-13.216c-1.446 0-2.915.255-4.357.751-4.816 1.661-8.184 5.765-8.184 9.978 0 5.969 4.624 10.493 10.805 10.635-.121.473-.182.939-.182 1.396 0 .92.233 1.791.713 2.633-.056 0-.11 0-.17 0-5.892 0-11.21 2.891-13.229 7.193-.526 1.119-.794 2.25-.794 3.367 0 1.086.279 2.131.826 3.113 1.269 2.27 3.994 4.03 7.677 4.961 1.901.48 3.944.725 6.07.725 1.906 0 3.723-.246 5.403-.732 5.238-1.521 8.625-5.377 8.625-9.828-.0001-4.271-1.374-6.828-5.059-9.435m-16.691 9.777c0-3.107 3.947-5.832 8.446-5.832h.121c.979.012 1.934.156 2.834.432.309.213.607.416.893.611 2.084 1.42 3.461 2.357 3.844 3.861.09.379.135.758.135 1.125 0 3.869-2.885 5.83-8.578 5.83-4.315 0-7.695-2.646-7.695-6.03m4.094-29.357c.703-.803 1.624-1.227 2.658-1.227l.117.002c2.921.086 5.716 3.341 6.23 7.256.289 2.192-.199 4.253-1.301 5.509-.705.805-1.613 1.229-2.689 1.229 0 0 0 0-.002 0h-.047c-2.861-.088-5.716-3.467-6.227-7.377-.287-2.186.173-4.151 1.261-5.392"/></svg>