<svg xmlns="http://www.w3.org/2000/svg" width="7.199" height="7.199" viewBox="0 0 203.18 203.18" shape-rendering="geometricPrecision" image-rendering="optimizeQuality" fill-rule="evenodd" clip-rule="evenodd"><g fill-rule="nonzero"><path d="m101.59 174.09c20.35-24.41 50.8-66.25 50.8-97.89 0-28.01-22.79-50.79-50.8-50.79-28.01 0-50.8 22.78-50.8 50.79 0 31.65 30.47 73.49 50.8 97.89m0-131.75c18.67 0 33.87 15.19 33.87 33.86 0 21.23-20.64 53.29-33.87 70.96-13.23-17.65-33.86-49.7-33.86-70.96 0-18.67 15.19-33.86 33.86-33.86"/><path d="m118.52 76.2c0-9.33-7.59-16.93-16.93-16.93-9.34 0-16.93 7.6-16.93 16.93 0 9.33 7.59 16.94 16.93 16.94 9.34 0 16.93-7.61 16.93-16.94"/><path d="m67.73 194.73h67.73v-16.93h-67.73z"/></g></svg>