<svg xmlns="http://www.w3.org/2000/svg" width="96" height="165.3" viewBox="0 0 2709.32 4665.12" xmlns:xlink="http://www.w3.org/1999/xlink" shape-rendering="geometricPrecision" image-rendering="optimizeQuality" fill-rule="evenodd" clip-rule="evenodd"><defs><linearGradient id="3" gradientUnits="userSpaceOnUse" xlink:href="#0" x1="2115.08" y1="2494.12" x2="-80.79" y2="3581.43"/><linearGradient id="2" gradientUnits="userSpaceOnUse" xlink:href="#0" x1="2298.14" y1="3281.07" x2="794.12" y2="3662.14"/><linearGradient id="0" gradientUnits="userSpaceOnUse" x1="2706.68" y1="3150.92" x2="980.34" y2="3863.23"><stop stop-color="#009ca2"/><stop offset=".412" stop-color="#006dba"/><stop offset="1" stop-color="#00274f"/></linearGradient><linearGradient id="1" gradientUnits="userSpaceOnUse" xlink:href="#0" x1="2742" y1="2429.49" x2="864.44" y2="3355.18"/></defs><path d="m1356.91 929.15c46.82 45.73 136.52 122.11 228.99 209.17 92.47 87.06 187.7 184.78 284.77 285.96 97.09 101.17 196.02 205.77 275.9 295.92 79.9 90.15 140.75 165.82 175.66 210.22 34.93 44.4 43.92 57.52 56.63 133.94 12.72 76.42 29.16 216.14 57.94 361.4 28.79 145.26 69.92 296.07 117.9 419.45 47.98 123.38 102.82 219.34 130.24 274.18 27.42 54.84 27.42 68.54 20.56 75.4-6.85 6.85-20.56 6.85-61.34-9.61-40.78-16.48-108.64-49.43-169.98-100.17-61.34-50.75-116.18-119.29-156.59-213.4-40.4-94.11-66.36-213.79-91.99-325.48-25.63-111.71-50.93-215.45-132.24-378.16-81.29-162.73-218.6-384.46-372.5-578.96-153.88-194.5-324.37-361.77-396.9-479.86-72.53-118.08-47.14-186.98-32.47-213.9 14.67-26.91 18.6-11.83 65.42 33.9" fill="url(#1)"/><path d="m2063.67 3189.14c64.8 224.06 152.15 377.32 230.09 474.52 77.95 97.19 146.49 138.32 198.7 159.76 52.22 21.45 88.1 23.21 109.69 21.97 21.59-1.26 28.88-5.52 31.21-11.43 2.34-5.92-.29-13.48-9.96-33.91-9.67-20.44-26.38-53.74-74.07-172.08-47.7-118.36-126.37-321.76-177.2-507.9-50.83-186.15-73.83-355.04-84.35-495.11-10.52-140.06-8.59-251.3-8.79-332.97-.19-81.69-2.51-133.8-15.75-181.88-13.24-48.09-37.4-92.14-125.8-216.43-88.38-124.3-241.02-328.83-383.99-502.46-142.98-173.63-276.3-316.37-353.97-397.75-77.66-81.39-99.67-101.43-142.23-65.08-42.57 36.35-105.7 129.08-27.16 335.96 78.53 206.88 298.72 527.9 436.38 732.09 137.65 204.19 192.78 291.54 241.47 482.65 48.69 191.11 90.94 485.98 155.73 710.05" fill="url(#0)"/><path d="m1745.84 2810.77c-13.7 133.9-16.08 223.96-13.59 310.09 2.49 86.13 9.82 168.35 28.27 245.87 18.45 77.53 48.01 150.38 85.49 220.95 37.48 70.55 82.89 138.83 119.34 187.15 36.46 48.31 63.98 76.68 85.64 91.88 21.66 15.18 37.47 17.19 47.92 10.98 10.46-6.21 15.56-20.65 16.76-47.4 1.19-26.74-1.53-65.8-16.64-197.12-15.11-131.32-42.6-354.9-44.93-534.07-2.31-179.18 20.55-313.94 44.07-432.85 23.52-118.93 47.7-222.01 60.28-289.26 12.6-67.26 13.61-98.68-6.99-166.62-20.59-67.94-62.77-172.39-131.9-315.46-69.14-143.08-165.22-324.76-256.1-477.38-90.87-152.61-176.53-276.14-258.52-375.05-81.97-98.92-160.26-173.21-223.1-218.72-62.86-45.51-110.26-62.23-95.13 48.23 15.14 110.45 92.83 348.08 186.52 562.87 93.67 214.77 203.34 406.69 278.74 550.64 75.4 143.95 116.54 239.91 124.58 376.77 8.05 136.86-17 314.6-30.71 448.5" fill="url(#2)"/><path d="m655.42 886.23c-52.2 119.07-65.91 324.7-100.18 502.93-34.28 178.21-89.11 329.02-123.39 459.26-34.27 130.23-47.98 239.9-13.7 342.73 34.27 102.81 116.52 198.78 185.07 281.04 68.54 82.25 123.38 150.8 157.66 239.9 34.26 89.11 47.98 198.79 47.98 287.9 0 89.11-13.72 157.65-6.86 191.93 6.85 34.27 34.28 34.27 75.4 13.72 41.13-20.57 95.97-61.71 137.09-123.4 41.13-61.69 68.55-143.94 61.7-267.32-6.86-123.38-47.99-287.9-79.81-435.3-31.82-147.4-54.35-277.69-33.79-366.8 20.57-89.11 84.22-137.04 150.32-147.3 66.1-10.26 134.64 17.17 203.19 65.15 68.54 47.98 137.09 116.53 178.22 191.93 41.12 75.4 54.84 157.65 34.27 246.77-20.57 89.11-75.4 185.07-157.16 278.97-81.76 93.9-190.45 185.74-258.99 281.7-68.55 95.97-96.96 196.06-104.74 273.25-7.79 77.19 5.05 131.47 16.17 165.03 11.11 33.54 20.52 46.37 82.64-21.9 62.12-68.28 176.99-217.63 337.23-360.85 160.25-143.23 365.88-280.34 482.41-376.29 116.53-95.97 143.96-150.81 150.8-212.5 6.86-61.69-6.84-130.23-47.98-253.62-41.12-123.38-109.66-301.61-185.07-459.25-75.4-157.66-157.65-294.75-233.06-438.69-75.4-143.95-143.94-294.76-226.2-390.72-82.26-95.97-178.21-137.1-263.11-153.35-84.89-16.25-158.7-7.63-240.95 12.94-82.26 20.56-172.96 53.06-225.16 172.14" fill="url(#3)"/><path d="m429.93 1401.83c422.83-137.52 759.17-293.31 1084.28-515.65l-486.1-886.72-366.84 197.47 79.2 416.3-273.12-311.9-467.34 251.57 429.92 848.93" fill="#fff"/><path d="m1128.37 3432.93c5.13 62.39 49.08 82.95 80.76 20.96 61.25-150.87 205.18-328.74 298.49-370.92 58.51-26.45 86 10.94 89.51 67.93 11.84 192.51-247.07 466.89-391.36 598.26-77.16 70.25 12.42 139.95 82.76 69.6 150.58-150.59 390.12-421.39 397.56-649.06 2.68-81.85-28.64-178.89-125.68-181.96-134.54-4.26-292.45 187.91-359.08 289.82-1.36-10.72-3.06-22.53-5.1-35.2-31.11 36.16-57.38 67.57-78.58 91.6 5.63 44.99 8.92 80.73 10.72 98.97m-22.12-494.05c-59.58-121.35-149.59-207.38-279.67-143.26-86.55 42.66-116.73 130.69-117.29 231.38-1.91 336.68 250.45 720.49 458.6 966.84 48.87 46.16 63.2 7.18 35.86-34.41-200.99-244.5-414.54-606.81-408.15-935.72 1.27-65.85 16.97-117.09 54.8-138.94 97.63-56.37 161.63 28.31 203.42 147.64 13.78-30.91 31.03-62.4 52.43-93.53" fill="#c00242"/><ellipse cx="1197.77" cy="4553.16" rx="646.87" ry="112.5" fill="#2e6db6"/></svg>