<svg xmlns="http://www.w3.org/2000/svg" width="84" height="36" viewBox="0 0 2370.66 1016" shape-rendering="geometricPrecision" image-rendering="optimizeQuality" fill-rule="evenodd" clip-rule="evenodd"><defs><linearGradient id="0" gradientUnits="userSpaceOnUse" x1="1511.64" y1="656.23" x2="645.19" y2="1000.01"><stop stop-color="#009ca2"/><stop offset=".412" stop-color="#006dba"/><stop offset="1" stop-color="#00274f"/></linearGradient></defs><path d="m1723.03 180.03c2.74-2.83 4.96-5.39 7.13-8.65l9.97-25.22c-.65-2.1-2.91 3.27-.31-5.7l6.1-.27c8.59-2.51 3.93-10.8 1.07-17.92-10.48-26.06 9.25-2.68-2.5-37.16-10.27-30.15-.76-28.48-22.79-52.2-7-7.54-22.81-15.76-34.98-14.43-6.64-.98-6.15-3.1-6.63 1.86l.45.93-9.9 3.5c-17.7 5.63 1.9 1.87-13.83 8.38-14.05 5.82-4 5.64-22.67 24.93-22.12 22.86 15.58 75.92 12.6 88.41-1.83 7.68-2.83 5.51-5.2 7.84-2.35 2.32-3.08 3.43-5.1 5.99l-29.3 16.49c-6.32 1.94-14.4-.74-21.37-.13-16.69 1.47-20.09 10.61-36.02 8.66-14.86-1.82-26.85-3-41.15-1.01-16.91 2.35-58.27 11.46-70.32 18.43-9.33 5.4-7.88 26.22-9.11 38.99-7.18 74.43 4.51 91.04 4.1 122.87-.23 17.98-1.05 23.08 6.27 37.64l15.44 28.47c6.7.4 5.11-.23 7.18-7.18 1.49 4.86 1.58 4.85 2.84 6.39 8.37.7 6.11-2.45 7.04-6.01 4 3.5 2.53 3.37 8.61.76l2.8-3.29 6.16.84c9.37-9.2 9.63-20.1 5.01-30.73 12.34 1.87 26.02 7.4 29.29-5.66-59.81-11.6-59.97-18.77-58.07-51.81-.18-39.95 6.02-57.77 19-92.8 12.83 1.99 24.13 4.64 37.51 5.83 12.93 1.14 23.7-.04 36.3.4 2.88 29.92-2.85 60.03.96 91.16 1.97 16.13-.28 29.22-.26 45.69.001 18.39-5.97 22.71-11.03 38.48-9.75 30.36-30.77 40.23-27.68 78.83 1.25 15.58-3.84 23.72-12.28 36.21-14.04 20.77-26.18 44.07-36.88 67.11-21.48 46.23-65.64 11.45-103.19 40.8-14.33 11.2-46.57 22.08-66.62 29.33-28.95 10.49-29.2 11.85-45.7 2.37-10.81-6.21-13.77-6.93-29.57-8.61-11.25 9.94-11.17 16.14-14.74 34.28-6.68 33.9-27.04 34.7-35.07 63.48-3.28 11.77-8.92 29.46-3.11 39.65 17.2 4.38 10.77-5.14 38.93-33.45 6.49-6.52 12.33-10.04 21.08-14.66 13.02-6.87 15.18.41 27.7-3.83.39-8.32-.98-4.4-4.91-11.28 6.37-5.76 33.92-15.28 44.89-18.95 14.24-4.77 142.99-28.82 156.48-28.97 25.28-.29 37.09 3.11 50.9-12.17 12.8-14.15 22.71-20.51 35.48-31.55 12.49-10.78 23.95-18.74 35.9-31.07 9.48-9.78 23.3-27.29 31.88-34.79 16.73 4.79 36.95 16.2 55.12 22.37 21.17 7.19 35.32 10.09 52.27 22.51-.59 7.4-14.09 33.83-17.81 44.73-6.03 17.64-6.51 36.24-10.63 54.31-5.14 22.48-21.44 78.3-33.05 92.99-2.44 3.08-19.48 8.96-23.24 38.3-1.99 15.61 18.67 23.59 27.79 31.49 11.95 10.33 15.57 19.33 31.5 28.97 13.53 8.2 28.22 11.1 44.4 15.46 15.36 2.41 36.35-3.87 16.92-18.13-10.11-5.77-19.3-12.78-23.87-23.82-15.11-21.52-14.75-26.9-13.79-33.22l-4.17-17.38c-.41.32-3.33-.58-3.37-2.32-1.61-1.51-1.43-1.41-1.4-3.49-3.87-10.31 3.31-36.75 7.23-44.57l16.49-28.76c.59-.69 1.14-1.28 1.65-1.78 6.04-10.71 11.83-21.59 17.7-32.4 13.85-25.82 27.65-52.13 32.97-59.98 2.24-3.3 4.67-6.65 7.12-10.11l7.1-11.52c7.71-13.87 10.2-17.33 12.05-32.2l-.8-3.29c-7.94-12.05-6.04-23.18-24.5-40.53-33.36-31.35-81.22-70.29-124.51-87.93 3.61-15.6 12.51-26.32 18-41.31 8.5-23.22 31.42-70.87 33.09-82.99 1.61-11.71 7.41-32.89 12.17-43.61 6.2 7.33 10.25 20.55 14.61 29.98 3.58 7.72 18.31 16.87 30.21 18.96 10.02-4.25 21.48-18.96 28.18-28.92l41.02-76.23c11.53-22.72 10.18-30.37-3.7-38.18l-8.03-2.05.31-5.48c-4.58-7.54-6.15-2.26-10.94-2.94-8.41-1.2 4.61-4.21-12.2-4.81-3.78 3.01-7.9 7.03-9.41 14.08-3.03 14.18 5.55 5.43-.18 16.24-10.03-3.14-5.62-8.89-9.82-17.91-3.77-8.11-16.38-17.99-16.7-4.53-.17 7.16 6.01 4.71 9.84 29.71.75 4.92 3.6 12.38 4.99 17.03 2.77 9.24 5.22 8.69 7.68 14.83-2.24 5.44-8.2 12.93-12.23 14.6-5.33-6.21-8.54-19.83-14.15-27.65-6.75-9.42-11.02-14.72-13.14-28.73-3.57-23.62-13.49-46.48-27.55-55.29z" fill="none" stroke="#2e6db6" stroke-width="8.47" stroke-miterlimit="22.926"/><path d="m1419.56 196.99c2.9-3 5.25-5.71 7.54-9.16l10.57-26.71c-.69-2.23-3.09 3.47-.33-6.04l6.46-.28c9.1-2.66 4.16-11.44 1.13-18.98-11.1-27.6 9.79-2.84-2.64-39.35-10.88-31.93-.81-30.16-24.14-55.29-7.41-7.98-24.15-16.68-37.05-15.27-7.03-1.04-6.5-3.28-7.01 1.96l.47.99-10.48 3.71c-18.75 5.96 2.01 1.98-14.65 8.87-14.88 6.16-4.24 5.97-24.01 26.4-23.43 24.21 16.5 80.41 13.35 93.63-1.94 8.13-3 5.83-5.5 8.3-2.5 2.46-3.27 3.63-5.41 6.34l-31.03 17.46c-6.69 2.06-15.24-.77-22.63-.13-17.67 1.55-21.28 11.23-38.15 9.17-15.73-1.92-28.43-3.17-43.57-1.07-17.91 2.49-61.71 12.13-74.48 19.52-9.87 5.72-8.33 27.77-9.64 41.29-7.6 78.83 4.77 96.41 4.34 130.12-.24 19.05-1.11 24.45 6.64 39.86l16.36 30.15c7.09.43 5.4-.24 7.6-7.6 1.58 5.15 1.67 5.14 3.01 6.76 8.86.75 6.46-2.58 7.45-6.36 4.23 3.7 2.68 3.57 9.12.8l2.96-3.48 6.52.89c9.93-9.74 10.2-21.28 5.31-32.54 13.07 1.98 27.56 7.84 31.02-6-63.34-12.29-63.5-19.87-61.5-54.86-.19-42.31 6.38-61.18 20.12-98.28 13.6 2.11 25.56 4.91 39.73 6.17 13.69 1.22 25.1-.04 38.44.43 3.05 31.69-3.02 63.57 1.02 96.53 2.09 17.09-.3 30.95-.28 48.39.02 19.48-6.32 24.05-11.68 40.75-10.32 32.16-32.59 42.61-29.31 83.49 1.32 16.49-4.07 25.11-13.01 38.34-14.86 21.99-27.72 46.67-39.06 71.07-22.75 48.96-69.51 12.13-109.27 43.21-15.18 11.86-49.32 23.38-70.55 31.06-30.66 11.11-30.92 12.55-48.4 2.51-11.45-6.58-14.58-7.34-31.32-9.12-11.91 10.53-11.83 17.1-15.61 36.3-7.07 35.91-28.64 36.76-37.13 67.23-3.48 12.46-9.45 31.2-3.3 41.99 18.22 4.64 11.4-5.44 41.23-35.42 6.87-6.9 13.06-10.63 22.33-15.53 13.78-7.28 16.07.43 29.33-4.06.41-8.8-1.04-4.65-5.2-11.94 6.74-6.1 35.92-16.18 47.54-20.07 15.08-5.05 151.42-30.52 165.71-30.68 26.77-.3 39.27 3.29 53.91-12.89 13.55-14.99 24.04-21.72 37.57-33.41 13.22-11.42 25.36-19.84 38.02-32.9 10.03-10.36 24.66-28.9 33.76-36.85 17.72 5.08 39.13 17.16 58.37 23.7 22.42 7.61 37.4 10.68 55.35 23.84-.62 7.83-14.92 35.82-18.86 47.36-6.38 18.69-6.89 38.38-11.26 57.52-5.44 23.8-22.7 82.92-35 98.47-2.58 3.26-20.63 9.5-24.6 40.57-2.12 16.53 19.77 24.98 29.42 33.34 12.66 10.94 16.49 20.47 33.36 30.69 14.33 8.68 29.89 11.75 47.02 16.37 16.27 2.54 38.49-4.11 17.92-19.2-10.71-6.11-20.44-13.54-25.27-25.23-16.01-22.79-15.63-28.49-14.61-35.18l-4.42-18.4c-.43.33-3.53-.62-3.57-2.46-1.7-1.6-1.51-1.5-1.48-3.7-4.1-10.92 3.51-38.92 7.66-47.2l17.46-30.45c.63-.74 1.21-1.37 1.75-1.89 6.39-11.35 12.53-22.87 18.75-34.31 14.66-27.34 29.28-55.21 34.91-63.52 2.37-3.49 4.94-7.05 7.54-10.71l7.51-12.2c8.17-14.69 10.81-18.35 12.76-34.1l-.84-3.49c-8.41-12.75-6.4-24.54-25.95-42.92-35.33-33.19-86-74.43-131.85-93.11 3.82-16.52 13.25-27.88 19.06-43.75 9-24.59 33.27-75.06 35.04-87.89 1.71-12.4 7.84-34.83 12.89-46.18 6.57 7.76 10.86 21.77 15.47 31.74 3.79 8.19 19.39 17.87 32 20.09 10.61-4.5 22.74-20.09 29.83-30.63l43.45-80.72c12.21-24.07 10.78-32.17-3.92-40.44l-8.5-2.18.32-5.79c-4.85-7.99-6.51-2.4-11.58-3.12-8.91-1.26 4.88-4.45-12.92-5.09-4.01 3.19-8.37 7.45-9.96 14.91-3.21 15.02 5.87 5.74-.2 17.2-10.62-3.33-5.95-9.42-10.39-18.97-4-8.59-17.35-19.05-17.69-4.79-.18 7.58 6.36 4.98 10.41 31.45.8 5.22 3.82 13.12 5.3 18.05 2.92 9.78 5.52 9.19 8.13 15.69-2.38 5.77-8.69 13.7-12.96 15.47-5.64-6.58-9.04-21-14.98-29.28-7.15-9.98-11.67-15.59-13.91-30.43-3.79-25.01-14.29-49.23-29.18-58.55" fill="url(#0)"/></svg>