<svg xmlns="http://www.w3.org/2000/svg" width="84" height="36" viewBox="0 0 2370.66 1016" shape-rendering="geometricPrecision" image-rendering="optimizeQuality" fill-rule="evenodd" clip-rule="evenodd"><g fill="none" stroke="#2e6db6" stroke-miterlimit="22.926"><g stroke-width="8.47"><path d="m1590.55 524.28h139.34"/><path d="m1684.99 479.38l44.9 44.9-41.9 41.9"/><g stroke-linejoin="round" stroke-linecap="round"><path d="m1821.45 733.7v129.67l75.84 43.78v-129.66c0-12.04 8.53-26.81 18.97-32.84.08-.05.16-.09.24-.14l-75.84-43.78c-.16.09-.24.13-.25.14-10.43 6.01-18.96 20.79-18.96 32.83z"/><path d="m1881.04 799.96l-43.34-25.02"/><path d="m1881.04 815.88l-43.34-25.02"/><path d="m1881.04 831.81l-43.34-25.03"/><path d="m1881.04 847.73l-43.34-25.02"/><path d="m2149.23 1016l105.63-60.98v-341.54l95.06-245.02c14.52-37.44 5.83-69.9-19.33-72.14"/><path d="m1897.3 782.28l50.63 29.23v-100.75l-133.6-77.14v100.76l7.12 4.11"/><path d="m1831.58 707.55v-27.19l99.1 57.22v27.19l-22.72-13.12"/><path d="m2105.95 693.95l-200.75-115.9c-7.11-4.1-12.92.29-12.92 9.77 0 9.48 5.81 20.59 12.92 24.69l200.75 115.9c7.11 4.11 12.92-.29 12.92-9.77 0-9.48-5.81-20.58-12.92-24.69z"/><path d="m1897.3 870.54l251.93 145.46v-357.94l-365.27-210.9v357.95l33.61 19.4"/><path d="m1977.43 89.53l362.77 209.46c-2.86-1.44-6.08-2.36-9.61-2.68-25.16-2.24-57.62 26.54-72.14 63.98l-102.18 263.35c-4.78 12.31-7.04 24.08-7.04 34.42l-365.27-210.9c0-10.33 2.26-22.1 7.04-34.41l102.17-263.35c14.53-37.44 46.99-66.22 72.15-63.98 4.6.42 8.65 1.84 12.11 4.11z"/><path d="m2214.01 367.44l-90.22 216.58-292.15-168.66 85.17-219.51z"/></g><ellipse cx="1377.89" cy="715.99" rx="205.77" ry="211.66"/><ellipse cx="1377.89" cy="715.99" rx="179.19" ry="184.32"/><path d="m1347.75 755.62v18.34h70.76v27.19h-70.76v29.48h-53.38v-29.48h-31.78v-27.19h31.78v-172.61h99.24c31.23 0 55.63 6.55 73.21 19.65 17.58 13.1 26.37 32.32 26.37 57.65 0 25.11-8.79 44.22-26.37 57.32-17.58 13.1-41.98 19.65-73.21 19.65h-45.86zm91.72-76.64c0-11.14-3.99-19.66-11.96-25.55-7.97-5.9-19.38-8.85-34.23-8.85h-45.53v69.44h45.53c14.85 0 26.26-3 34.23-9.01 7.97-6 11.96-14.68 11.96-26.03z" fill-rule="nonzero"/></g><g stroke-width="8.46"><path d="m1098.31 295.6v-173.39c0-18.63 15.23-33.86 33.86-33.86h430.58c18.63 0 33.86 15.23 33.86 33.86v227.74c0 18.62-15.24 33.86-33.86 33.86h-152.42"/><path d="m1596.61 222.86h-497.75m0-79.37h497.75"/><path d="m1497.64 336.81c-5.79 5.87-13.78 9.52-22.6 9.52-17.66 0-31.97-14.56-31.97-32.52 0-17.96 14.31-32.52 31.97-32.52 8.82 0 16.81 3.64 22.6 9.51"/><path d="m1520.24 346.33c-17.66 0-31.97-14.56-31.97-32.52 0-17.96 14.31-32.52 31.97-32.52 17.66 0 31.97 14.56 31.97 32.52 0 17.96-14.31 32.52-31.97 32.52z"/></g><g stroke-width="8.47"><path d="m1071.67 500.35v14.15h54.58v20.97h-54.58v22.74h-41.18v-22.74h-24.5v-20.97h24.5v-133.15h76.56c24.08 0 42.91 5.05 56.47 15.16 13.55 10.11 20.33 24.93 20.33 44.47 0 19.37-6.78 34.11-20.33 44.21-13.56 10.11-32.39 15.16-56.47 15.16h-35.38zm70.75-59.12c0-8.59-3.08-15.16-9.22-19.71-6.15-4.55-14.95-6.82-26.41-6.82h-35.12v53.56h35.12c11.46 0 20.26-2.31 26.41-6.95 6.14-4.63 9.22-11.32 9.22-20.08z" fill-rule="nonzero"/><path d="m1184.36 643.96h-404.85v-348.36h630.82v211.36"/><path d="m1205 601.18h-349.62c0-18.62-15.24-33.86-33.86-33.86v-195.08c18.62 0 33.86-15.24 33.86-33.86h479.08c0 18.62 15.24 33.86 33.86 33.86v132.33"/></g></g></svg>