<svg xmlns="http://www.w3.org/2000/svg" width="84" height="36" viewBox="0 0 2370.66 1016"
     shape-rendering="geometricPrecision" image-rendering="optimizeQuality" fill-rule="evenodd" clip-rule="evenodd">
    <defs>
        <linearGradient id="2" gradientUnits="userSpaceOnUse" x1="373.91" y1="1124.71" x2="589.25" y2="646.65">
            <stop stop-color="#fff"/>
            <stop offset="1" stop-color="#fff" stop-opacity="0"/>
        </linearGradient>
        <linearGradient id="1" gradientUnits="userSpaceOnUse" x1="460.15" y1="717.71" x2="331.57" y2="768.73">
            <stop stop-color="#009ca2"/>
            <stop offset=".412" stop-color="#006dba"/>
            <stop offset="1" stop-color="#00274f"/>
        </linearGradient>
        <mask id="0">
            <path fill="url(#2)" d="m407.85 660.05h272.86v219.41h-272.86z"/>
        </mask>
    </defs>
    <g fill="none" stroke="#2e6db6" stroke-width="8.47" stroke-miterlimit="22.926">
        <path d="m1667.02 509.5h139.34"/>
        <path d="m1761.46 464.6l44.9 44.9-41.9 41.9"/>
        <path d="m910.74 509.5h139.34"/>
        <path d="m1005.18 464.6l44.9 44.9-41.9 41.9"/>
        <path d="m1187.95 902.71c-46.56 0-84.66-38.09-84.66-84.66v-700.27l35.48 35.47 35.48-35.47 35.48 35.47 35.47-35.47 35.48 35.47 35.48-35.47 35.48 35.47 35.48-35.47 35.47 35.47 35.48-35.47 35.48 35.47 35.48-35.47 35.47 35.47 35.48-35.47v700.26"/>
        <path d="m1187.95 902.71v-.001c46.56 0 84.66-38.1 84.66-84.66h494.76v.001c0 45.92-37.04 83.59-82.73 84.63v.03h-1.94-494.75z"/>
        <g stroke-linecap="square">
            <path d="m1279.42 395.66h-32.28c-18.63 0-33.86-15.23-33.86-33.86v-42.76"/>
            <path d="m1279.42 319.04v153.24"/>
            <path d="m1423.85 395.66h32.28"/>
            <path d="m1423.85 472.28v-153.24"/>
            <path d="m1489.99 319.57l-33.86 76.09 33.86 76.62"/>
            <path d="m1389.6 319.04h-72.69v153.24h72.69"/>
            <path d="m1366.52 393.99h-49.61"/>
        </g>
        <path d="m1207.22 220.05h288.84"/>
        <path d="m1207.22 257.53h288.84"/>
        <path d="m1201.49 550.79h196.2"/>
        <path d="m1201.49 588.27h196.2"/>
        <path d="m1201.49 625.75h196.2"/>
        <path d="m1201.49 663.23h196.2"/>
        <path d="m1860.19 317.27h498.31v381.45h-498.31z"/>
        <g stroke-linecap="square">
            <path d="m2075.73 462.89l51.68-31.55v153.3"/>
            <path d="m2148.42 584.64h-72.69"/>
            <path d="m1966.76 465.2c0-18.63 15.23-33.86 33.86-33.86h4.97c18.63 0 33.86 15.24 33.86 33.86v19.04l-72.69 100.34h72.69"/>
            <rect x="2179.23" y="431.34" width="72.69" height="153.24" rx="33.87"/>
        </g>
        <g stroke-linejoin="round">
            <path d="m646.22 290.37l-12.96-11.92c-41.47 17.75-86.63 74.33-87.58 120.93l.17.23 47.71 65.67c9.78 2.85 18.58 4.94 26.87 6.32 26.11 4.35 47.27 1.67 78.45-6.32l47.71-65.67.17-.23c-.95-46.6-46.11-103.18-87.57-120.93l-12.97 11.92z"/>
            <path d="m615.01 470.62l31.21-180.25c-39.74 38.08-59.63 71.47-82.38 120.89"/>
            <path d="m677.43 470.62l-31.21-180.25c39.75 38.08 59.63 71.47 82.39 120.89"/>
            <path d="m545.85 399.61c25.1 13.04 58 45.93 69.16 71.01"/>
            <path d="m746.59 399.61c-25.1 13.04-57.99 45.93-69.16 71.01"/>
            <path d="m646.22 457.38v-167.01"/>
            <path d="m615.01 470.62l31.21-13.24 31.21 13.24"/>
            <path d="m411.11 461.54l-15.34 8.65c4.06 44.92 43.92 105.36 87.94 120.66l.27-.09 77.21-25.09c5.73-8.41 10.44-16.13 14.32-23.6 12.19-23.48 16.18-44.44 18.22-76.56l-47.71-65.67-.17-.23c-44.61-13.5-112.38 11.96-142.07 45.92l7.33 16.01z"/>
            <path d="m572.89 546.92l-161.78-85.38c23.93 49.57 49.55 78.8 89.51 115.71"/>
            <path d="m592.18 487.56l-181.07-26.02c48.5-26.03 86.4-34.62 140.43-40.99"/>
            <path d="m483.98 590.76c20.17-19.85 61.61-40.97 88.91-43.84"/>
            <path d="m546.02 399.84c4.65 27.9 25.76 69.35 46.16 87.72"/>
            <path d="m569.95 513.15l-158.84-51.61"/>
            <path d="m572.89 546.92l-2.94-33.77 22.23-25.59"/>
            <path d="m500.98 738.13l3.48 17.26c43.98 10.02 113.77-9.21 141.93-46.35v-.29-81.17c-6.23-8.06-12.12-14.92-18.02-20.91-18.57-18.86-37.26-29.13-67.19-41l-77.2 25.09-.27.09c-26.62 38.25-23.34 110.57-.22 149.3l17.49-2.02z"/>
            <path d="m632.17 610.65l-131.19 127.48c54.53-7.44 90.25-22.77 137.71-49.38"/>
            <path d="m581.68 573.96l-80.7 164.17c-9.77-54.17-6.23-92.87 4.4-146.23"/>
            <path d="m646.39 708.75c-12.64-25.31-19.92-71.25-14.22-98.1"/>
            <path d="m483.98 590.76c27.98 4.2 73.92-3.08 97.7-16.8"/>
            <path d="m599.15 603.01l-98.17 135.12"/>
            <path d="m632.17 610.65l-33.02-7.64-17.47-29.05"/>
            <path d="m791.97 738.36l17.49 2.02c23.12-38.73 26.4-111.05-.22-149.31l-.27-.09-77.2-25.08c-9.59 3.44-17.94 6.92-25.46 10.68-23.68 11.83-39.22 26.43-59.75 51.23v81.17.28c28.15 37.15 97.95 56.38 141.93 46.36l3.48-17.26z"/>
            <path d="m711.27 574.19l80.7 164.17c9.77-54.17 6.23-92.87-4.4-146.23"/>
            <path d="m660.78 610.88l131.19 127.48c-54.54-7.45-90.25-22.77-137.71-49.38"/>
            <path d="m808.97 590.98c-27.98 4.21-73.92-3.07-97.7-16.79"/>
            <path d="m646.56 708.98c12.64-25.31 19.92-71.25 14.22-98.1"/>
            <path d="m693.8 603.24l98.17 135.12"/>
            <path d="m711.27 574.19l-17.47 29.05-33.02 7.64"/>
            <path d="m881.85 461.77l7.32-16.01c-29.69-33.96-97.46-59.43-142.07-45.93l-.17.23-47.71 65.68c.31 10.18 1.04 19.19 2.29 27.51 3.94 26.17 13.02 45.46 30.26 72.65l77.2 25.08.27.09c44.02-15.3 83.88-75.73 87.94-120.65l-15.33-8.65z"/>
            <path d="m700.77 487.79l181.08-26.02c-48.5-26.03-86.4-34.63-140.44-41"/>
            <path d="m720.06 547.15l161.79-85.38c-23.94 49.56-49.55 78.79-89.52 115.71"/>
            <path d="m746.93 400.06c-4.64 27.91-25.76 69.36-46.16 87.73"/>
            <path d="m808.97 590.98c-20.16-19.84-61.61-40.96-88.91-43.83"/>
            <path d="m723 513.38l158.85-51.61"/>
            <path d="m700.77 487.79l22.23 25.59-2.94 33.77"/>
        </g>
        <path d="m646.22 709.27c-17.54 22.94-50.96 39.01-84.28 45.52v45.16c0 25.47-9.92 61.29-38.87 61.29h123.49 123.49c-28.95 0-38.87-35.82-38.87-61.29v-44.9c-33.5-6.52-67.12-22.68-84.62-45.78h-.34z"/>
    </g>
    <path d="m521.07 843.84c63.32-8.1 127.52-45.8 150.91-91.09 26.45-51.2-9.29-92.7-79.82-92.7-70.52 0-149.14 41.5-175.59 92.7-23.39 45.29 1.87 82.99 56.82 91.09l5.44 35.62 42.24-35.62"
          mask="url(#0)"/>
    <path d="m503.76 828.15c61.85-11.68 108.63-65.99 108.63-131.23 0-73.77-59.8-133.57-133.56-133.57-73.77 0-133.57 59.8-133.57 133.57 0 65.25 46.79 119.55 108.64 131.23l24.93 51.31 24.93-51.31"
          fill="#8c123b"/>
    <path d="m497.95 816.2c61.84-11.68 108.63-65.99 108.63-131.24 0-73.76-59.8-133.56-133.57-133.56-73.76 0-133.56 59.8-133.56 133.56 0 65.25 46.78 119.56 108.63 131.24l24.93 51.31 24.94-51.31"
          fill="#c00242"/>
    <path d="m481.72 699.84c.9 11.05 8.68 14.68 14.29 3.71 10.84-26.7 36.32-58.19 52.84-65.66 10.35-4.68 15.22 1.94 15.84 12.03 2.1 34.08-43.73 82.64-69.28 105.9-13.65 12.44 2.2 24.77 14.66 12.32 26.65-26.66 69.05-74.59 70.37-114.89.47-14.49-5.07-31.67-22.25-32.21-23.81-.76-51.77 33.26-63.56 51.3-3.8-29.85-21.82-107.26-66.34-85.31-15.32 7.55-20.66 23.13-20.76 40.96-.34 59.59 44.33 127.53 81.18 171.14 8.65 8.17 11.19 1.27 6.35-6.09-35.58-43.28-73.38-107.42-72.25-165.63.22-11.66 3-20.73 9.7-24.6 38.62-22.3 47.53 80.06 49.21 97.03"
          fill="#fff"/>
    <path d="m446.48 649.56c.43-.45.78-.85 1.12-1.36l1.57-3.96c-.1-.33-.46.51-.05-.9l.96-.04c1.35-.4.62-1.7.17-2.82-1.65-4.09 1.45-.42-.39-5.84-1.62-4.74-.12-4.47-3.59-8.2-1.1-1.19-3.58-2.48-5.49-2.27-1.05-.15-.97-.49-1.04.29l.07.15-1.56.55c-2.78.88.3.29-2.17 1.32-2.21.91-.63.88-3.57 3.91-3.47 3.6 2.45 11.94 1.98 13.9-.28 1.2-.44.86-.81 1.23-.37.36-.49.54-.8.94l-4.61 2.59c-.99.31-2.26-.11-3.36-.02-2.62.23-3.16 1.67-5.66 1.36-2.33-.28-4.22-.47-6.46-.16-2.66.37-9.16 1.8-11.06 2.9-1.46.85-1.23 4.12-1.43 6.13-1.13 11.7.71 14.3.65 19.31-.04 2.82-.17 3.63.98 5.91l2.43 4.48c1.05.06.8-.04 1.13-1.13.23.76.25.76.44 1 1.32.11.96-.38 1.11-.94.63.55.4.53 1.35.12l.44-.52.97.13c1.47-1.44 1.51-3.16.79-4.83 1.94.3 4.09 1.17 4.6-.89-9.4-1.82-9.42-2.95-9.13-8.14-.02-6.28.95-9.08 2.99-14.58 2.02.31 3.79.73 5.9.91 2.03.18 3.72 0 5.7.07.45 4.7-.45 9.43.15 14.32.31 2.54-.04 4.59-.04 7.18 0 2.89-.94 3.57-1.73 6.05-1.53 4.77-4.84 6.32-4.35 12.39.19 2.45-.61 3.73-1.93 5.69-2.21 3.26-4.12 6.93-5.8 10.55-3.37 7.26-10.31 1.8-16.22 6.41-2.25 1.76-7.31 3.47-10.46 4.61-4.55 1.65-4.59 1.86-7.19.37-1.7-.98-2.16-1.09-4.64-1.35-1.77 1.56-1.76 2.53-2.32 5.38-1.05 5.33-4.25 5.46-5.51 9.98-.52 1.85-1.4 4.63-.49 6.23 2.7.69 1.69-.8 6.12-5.25 1.02-1.03 1.93-1.58 3.31-2.31 2.05-1.08 2.39.07 4.35-.6.07-1.31-.15-.69-.77-1.77 1-.91 5.33-2.4 7.06-2.98 2.23-.75 22.47-4.53 24.59-4.55 3.97-.05 5.83.48 8-1.92 2.01-2.22 3.57-3.22 5.57-4.95 1.97-1.7 3.77-2.95 5.65-4.89 1.48-1.53 3.66-4.29 5.01-5.47 2.62.76 5.8 2.55 8.66 3.52 3.32 1.13 5.55 1.59 8.21 3.54-.09 1.16-2.21 5.31-2.8 7.03-.94 2.77-1.02 5.69-1.67 8.53-.81 3.54-3.37 12.31-5.19 14.62-.38.48-3.06 1.41-3.65 6.02-.32 2.45 2.93 3.7 4.36 4.94 1.88 1.63 2.45 3.04 4.95 4.56 2.13 1.29 4.44 1.74 6.98 2.43 2.42.37 5.71-.61 2.66-2.85-1.59-.91-3.03-2.01-3.75-3.75-2.38-3.38-2.32-4.22-2.17-5.22l-.65-2.73c-.07.05-.53-.09-.53-.36-.26-.24-.23-.22-.22-.55-.61-1.62.52-5.78 1.13-7.01l2.6-4.51c.09-.11.17-.21.25-.28.95-1.69 1.86-3.4 2.79-5.1 2.17-4.05 4.34-8.19 5.18-9.42.35-.52.73-1.05 1.12-1.59l1.11-1.81c1.21-2.18 1.61-2.73 1.9-5.06l-.13-.52c-1.25-1.89-.95-3.64-3.85-6.37-5.24-4.93-12.76-11.04-19.57-13.82.57-2.45 1.97-4.13 2.83-6.49 1.34-3.65 4.94-11.14 5.2-13.04.25-1.84 1.17-5.17 1.91-6.86.98 1.16 1.62 3.23 2.3 4.72.56 1.21 2.88 2.65 4.75 2.98 1.57-.67 3.37-2.98 4.43-4.55l6.44-11.98c1.82-3.57 1.6-4.77-.58-6l-1.26-.32.05-.86c-.72-1.19-.97-.36-1.72-.47-1.32-.18.72-.66-1.92-.75-.59.47-1.24 1.1-1.48 2.21-.47 2.23.88.85-.03 2.55-1.57-.49-.88-1.39-1.54-2.81-.59-1.28-2.57-2.83-2.62-.71-.03 1.12.94.74 1.54 4.67.12.77.57 1.94.79 2.67.43 1.45.82 1.37 1.2 2.33-.35.86-1.28 2.04-1.92 2.3-.84-.98-1.34-3.12-2.22-4.35-1.06-1.48-1.73-2.31-2.07-4.51-.56-3.71-2.12-7.31-4.33-8.69"
          fill="url(#1)"/>
    <g fill="none" stroke="#2e6db6" stroke-width="8.47" stroke-miterlimit="22.926">
        <ellipse cx="869.85" cy="239.65" rx="102.71" ry="103.12"/>
        <path d="m940.05 314.92v-15.16c0-11.12-9.09-20.21-20.21-20.21h-35.78v-16.81c11.5-5.35 19.49-17.02 19.49-30.56 0-18.61-15.09-33.69-33.7-33.69-18.61 0-33.7 15.08-33.7 33.69 0 13.54 7.99 25.21 19.49 30.56v16.81h-35.78c-11.12 0-20.21 9.09-20.21 20.21v15.16"/>
    </g>
</svg>