<svg xmlns="http://www.w3.org/2000/svg" width="60" height="60" viewBox="0 0 1693.32 1693.32" shape-rendering="geometricPrecision" image-rendering="optimizeQuality" fill-rule="evenodd" clip-rule="evenodd"><defs><linearGradient id="0" gradientUnits="userSpaceOnUse" x1="770.37" y1="1036.26" x2="-215.99" y2="1427.6"><stop stop-color="#009ca2"/><stop offset=".412" stop-color="#006dba"/><stop offset="1" stop-color="#00274f"/></linearGradient></defs><path d="m935.81 899.19c6.95 84.72 66.62 112.62 109.64 28.46 83.18-204.85 278.62-446.39 405.32-503.67 79.44-35.92 116.79 14.86 121.55 92.24 16.06 261.42-335.5 633.98-531.44 812.38-104.77 95.39 16.88 190.02 112.4 94.5 204.47-204.48 529.74-572.2 539.83-881.35 3.65-111.15-38.89-242.9-170.66-247.07-182.68-5.79-397.11 255.16-487.6 393.52-29.17-228.97-167.36-822.75-508.85-654.41-117.53 57.94-158.49 177.48-159.27 314.21-2.59 457.16 340.08 978.33 622.72 1312.83 66.38 62.68 85.83 9.74 48.72-46.73-272.94-332.01-562.93-823.98-554.25-1270.58 1.74-89.43 23.06-159 74.43-188.65 296.27-171.06 364.58 614.13 377.46 744.32" fill="#c00242"/><path d="m665.54 513.46c3.3-3.41 5.98-6.5 8.59-10.43l12.03-30.39c-.79-2.55-3.52 3.94-.38-6.88l7.36-.33c10.35-3.03 4.74-13.01 1.28-21.6-12.63-31.42 11.15-3.23-3.01-44.8-12.38-36.34-.92-34.33-27.47-62.93-8.44-9.09-27.5-19-42.18-17.39-8-1.19-7.4-3.74-7.98 2.24l.54 1.12-11.94 4.22c-21.34 6.79 2.29 2.25-16.67 10.1-16.95 7.01-4.83 6.8-27.33 30.05-26.67 27.56 18.78 91.54 15.19 106.59-2.2 9.25-3.42 6.63-6.27 9.45-2.83 2.8-3.71 4.14-6.14 7.22l-35.34 19.88c-7.61 2.34-17.35-.89-25.75-.16-20.12 1.77-24.23 12.79-43.43 10.44-17.91-2.19-32.37-3.61-49.61-1.22-20.38 2.83-70.25 13.82-84.78 22.23-11.24 6.51-9.49 31.61-10.97 47-8.66 89.73 5.43 109.75 4.94 148.13-.28 21.68-1.26 27.82 7.56 45.37l18.62 34.33c8.07.48 6.15-.28 8.65-8.66 1.8 5.86 1.9 5.85 3.42 7.7 10.09.85 7.37-2.95 8.49-7.24 4.81 4.21 3.05 4.06 10.38.91l3.37-3.96 7.43 1.01c11.3-11.09 11.6-24.23 6.04-37.05 14.88 2.26 31.37 8.93 35.31-6.82-72.1-13.99-72.29-22.63-70.01-62.46-.21-48.16 7.26-69.65 22.91-111.88 15.47 2.4 29.09 5.6 45.22 7.03 15.59 1.38 28.57-.05 43.76.49 3.47 36.07-3.44 72.36 1.16 109.89 2.38 19.45-.34 35.22-.32 55.09.02 22.16-7.19 27.37-13.29 46.38-11.75 36.61-37.1 48.51-33.37 95.04 1.51 18.78-4.63 28.59-14.81 43.65-16.92 25.04-31.56 53.13-44.46 80.9-25.9 55.74-79.14 13.81-124.4 49.19-17.27 13.5-56.14 26.62-80.31 35.37-34.9 12.64-35.2 14.28-55.09 2.85-13.04-7.49-16.6-8.36-35.66-10.39-13.56 11.99-13.46 19.47-17.77 41.33-8.05 40.88-32.6 41.84-42.27 76.53-3.96 14.19-10.76 35.52-3.75 47.8 20.74 5.28 12.98-6.19 46.93-40.32 7.82-7.86 14.86-12.1 25.42-17.68 15.68-8.28 18.29.5 33.39-4.61.47-10.03-1.19-5.3-5.92-13.6 7.68-6.95 40.89-18.42 54.12-22.85 17.16-5.75 172.37-34.74 188.64-34.93 30.48-.34 44.71 3.75 61.37-14.67 15.43-17.06 27.37-24.72 42.77-38.03 15.05-13 28.87-22.59 43.28-37.45 11.42-11.8 28.08-32.9 38.43-41.95 20.17 5.78 44.54 19.54 66.45 26.97 25.52 8.67 42.58 12.17 63.01 27.14-.71 8.92-16.98 40.78-21.47 53.92-7.26 21.27-7.84 43.69-12.82 65.48-6.19 27.09-25.84 94.39-39.84 112.1-2.94 3.71-23.49 10.81-28.01 46.18-2.4 18.81 22.5 28.44 33.5 37.95 14.4 12.46 18.77 23.31 37.97 34.94 16.31 9.88 34.03 13.37 53.53 18.63 18.52 2.9 43.82-4.67 20.39-21.86-12.18-6.95-23.26-15.41-28.76-28.72-18.23-25.94-17.79-32.43-16.63-40.04l-5.03-20.95c-.49.38-4.02-.71-4.06-2.8-1.95-1.82-1.72-1.7-1.69-4.21-4.66-12.43 3.99-44.31 8.72-53.73l19.88-34.67c.71-.84 1.37-1.55 1.98-2.15 7.28-12.91 14.27-26.03 21.35-39.05 16.69-31.13 33.33-62.86 39.74-72.32 2.7-3.97 5.63-8.02 8.59-12.18l8.55-13.89c9.3-16.73 12.3-20.89 14.52-38.82l-.96-3.97c-9.57-14.52-7.28-27.95-29.54-48.86-40.21-37.79-97.9-84.73-150.1-106 4.35-18.81 15.09-31.73 21.7-49.8 10.25-28 37.88-85.45 39.89-100.06 1.95-14.12 8.93-39.65 14.68-52.57 7.47 8.84 12.36 24.78 17.61 36.14 4.31 9.31 22.07 20.34 36.42 22.86 12.09-5.12 25.9-22.86 33.97-34.86l49.46-91.9c13.9-27.39 12.27-36.62-4.46-46.04l-9.68-2.47.36-6.6c-5.52-9.09-7.4-2.72-13.18-3.54-10.14-1.44 5.56-5.07-14.7-5.8-4.57 3.63-9.53 8.48-11.35 16.97-3.65 17.1 6.69 6.54-.22 19.59-12.09-3.8-6.78-10.73-11.84-21.6-4.54-9.78-19.74-21.69-20.13-5.46-.21 8.63 7.25 5.67 11.86 35.81.9 5.94 4.34 14.93 6.02 20.54 3.33 11.13 6.29 10.47 9.26 17.87-2.7 6.56-9.89 15.6-14.75 17.6-6.42-7.48-10.29-23.9-17.05-33.33-8.14-11.35-13.29-17.74-15.84-34.63-4.31-28.47-16.27-56.04-33.22-66.66" fill="url(#0)"/></svg>