<svg xmlns="http://www.w3.org/2000/svg" width="60" height="17.999" viewBox="0 0 1693.32 507.98" shape-rendering="geometricPrecision" image-rendering="optimizeQuality" fill-rule="evenodd" clip-rule="evenodd"><defs><linearGradient id="0" gradientUnits="userSpaceOnUse" x1="322.6" y1="299.49" x2="-90.45" y2="463.37"><stop stop-color="#009ca2"/><stop offset=".412" stop-color="#006dba"/><stop offset="1" stop-color="#00274f"/></linearGradient></defs><g fill="#009ca2"><path d="m422.25 64.31v154.39h21.67v-66.35h19.19l47.39 66.35h30.04l-58.91-78.23 52.43-76.16h-27.19l-43.37 67.45h-19.58v-67.45z"/><path d="m561.78 64.31v154.28h17.76l74.84-114.69v114.69h21.45v-154.28h-17.54l-75.05 116.46v-116.46z"/><path d="m707.69 218.7h2.1c10.84 0 19.61-2.21 26.35-6.59 6.71-4.39 11.67-11.2 14.86-20.44 3.19-9.21 4.78-21.28 4.78-36.14v-70.59h54.37v133.76h21.63v-154.39h-10.18-11.45-54.37-8.19-13.48v92.49c0 9.72-.91 17.58-2.75 23.63-1.85 6.05-4.71 10.51-8.56 13.38-3.84 2.86-8.91 4.31-15.11 4.31v20.58"/><path d="m866.86 163.4c0 11.31 2.25 21.27 6.75 29.86 4.49 8.63 10.83 15.26 19.02 19.97 8.23 4.71 17.73 7.07 28.49 7.07 10.73 0 20.22-2.36 28.45-7.07 8.19-4.71 14.57-11.34 19.06-19.97 4.5-8.59 6.74-18.55 6.74-29.86v-43.74c0-11.35-2.24-21.31-6.74-29.9-4.49-8.59-10.87-15.26-19.06-19.97-8.23-4.72-17.72-7.07-28.45-7.07-10.76 0-20.26 2.35-28.49 7.07-8.19 4.71-14.53 11.38-19.02 19.97-4.5 8.59-6.75 18.55-6.75 29.9v43.74m26.17 19.03c-2.68-5.26-3.99-11.35-3.99-18.31v-45.23c0-6.92 1.31-13.04 3.99-18.3 2.65-5.29 6.38-9.35 11.24-12.21 4.85-2.86 10.47-4.31 16.85-4.31 6.34 0 11.96 1.45 16.82 4.31 4.85 2.86 8.58 6.92 11.23 12.21 2.68 5.26 3.99 11.38 3.99 18.3v45.23c0 6.96-1.31 13.05-3.99 18.31-2.65 5.29-6.38 9.35-11.23 12.21-4.86 2.86-10.48 4.31-16.82 4.31-6.38 0-12-1.45-16.85-4.31-4.86-2.86-8.59-6.92-11.24-12.21"/><path d="m1031.51 114.37l36.97 82.88h15.08l36.93-84.88v106.33h21.12v-154.39h-20.25l-45.34 101.95-45.34-101.95h-20.3v154.39h21.13z"/><path d="m1179.85 64.31v154.39h10.51 11.16 77.52v-20.58h-77.52v-45.77h65.82v-20.59h-65.82v-46.82h77.52v-20.63h-77.52-11.16z"/><path d="m1332.25 84.94v133.76h21.63v-133.76h43.64v-20.63h-108.94v20.63z"/><path d="m1414.52 64.31v154.39h21.67v-59.87h38.12c9.21 0 17.29-1.95 24.32-5.87 7-3.88 12.43-9.39 16.28-16.49 3.87-7.1 5.79-15.37 5.79-24.79 0-9.42-1.92-17.68-5.79-24.86-3.85-7.14-9.28-12.68-16.28-16.6-7.03-3.95-15.11-5.91-24.32-5.91h-38.12-10.51-11.16m60.52 73.9h-38.85v-53.27h38.85c4.67 0 8.77 1.08 12.32 3.33 3.55 2.21 6.27 5.36 8.23 9.39 1.96 4.02 2.93 8.69 2.93 14.02 0 5.22-.97 9.86-2.93 13.92-1.96 4.02-4.68 7.14-8.23 9.31-3.55 2.21-7.65 3.3-12.32 3.3"/><path d="m1549.88 64.31v154.39h11.16 10.51 33.34c9.75 0 18.13-1.81 25.05-5.4 6.96-3.62 12.25-8.87 15.87-15.76 3.66-6.92 5.47-15.22 5.47-24.94 0-9.74-1.81-18.08-5.47-25.04-3.62-6.92-8.91-12.21-15.87-15.8-6.92-3.62-15.3-5.44-25.05-5.44h-33.34v-62.01h-21.67m21.67 133.81v-51.17h34.07c4.96 0 9.2.97 12.72 3 3.48 2.03 6.16 4.93 8.01 8.77 1.85 3.81 2.75 8.45 2.75 13.88 0 5.4-.9 10.01-2.75 13.81-1.85 3.84-4.53 6.74-8.01 8.74-3.52 1.95-7.76 2.97-12.72 2.97h-34.07"/><path d="m1671.69 64.31v154.39h21.63v-154.39z"/><path d="m1031.02 408.84h62.29l11.65 33.88h23.37l-56.93-154.39h-18.45l-56.94 154.39h23.38l11.63-33.88m31.13-90.68l24.09 70.09h-48.15l24.06-70.09"/><path d="m906.71 382.85h38.13c9.2 0 17.29-1.96 24.32-5.87 6.99-3.88 12.43-9.39 16.27-16.49 3.88-7.1 5.8-15.37 5.8-24.79 0-9.42-1.92-17.69-5.8-24.86-3.84-7.14-9.28-12.69-16.27-16.6-7.03-3.95-15.12-5.91-24.32-5.91h-38.13-10.51-11.16v154.39h21.67v-59.87m38.85-20.62h-38.85v-53.28h38.85c4.68 0 8.77 1.09 12.33 3.34 3.55 2.21 6.27 5.36 8.22 9.38 1.96 4.03 2.94 8.7 2.94 14.03 0 5.22-.98 9.86-2.94 13.92-1.95 4.02-4.67 7.14-8.22 9.31-3.56 2.21-7.65 3.3-12.33 3.3"/><path d="m830.5 396.62c0 5.4-.95 10.01-2.76 13.81-1.85 3.84-4.53 6.74-8.04 8.73-3.48 1.96-7.72 2.98-12.69 2.98h-38.85v-51.18h38.85c4.97 0 9.21.98 12.69 3.01 3.51 2.03 6.19 4.93 8.04 8.77 1.81 3.81 2.76 8.45 2.76 13.88m-62.34 46.1h38.13c9.74 0 18.12-1.81 25.04-5.4 6.96-3.62 12.25-8.88 15.87-15.76 3.66-6.93 5.48-15.23 5.48-24.94 0-9.75-1.82-18.08-5.48-25.04-3.62-6.92-8.91-12.21-15.87-15.8-6.92-3.63-15.3-5.44-25.04-5.44h-38.13v-41.39h73.28v-20.62h-73.28-11.16-10.51v154.39h11.16 10.51"/><path d="m494.12 297.06v113.18h-62.58c2.65-3.01 4.9-6.48 6.73-10.4 3.77-8.01 5.65-17.68 5.65-28.99v-73.79h50.2m-79.41 133.77h79.41 20.73v31.96h21.63v-52.55h-9.64-11.05v-133.8h-10.18-11.49-50.2-8.19-13.48v92.49c0 13.08-2.46 23.26-7.39 30.48-4.9 7.21-11.82 10.83-20.73 10.83h-.98-.11v20.59 31.96h21.67v-31.96"/></g><path d="m278.7 80.56c1.38-1.43 2.51-2.73 3.6-4.37l5.04-12.73c-.33-1.06-1.47 1.65-.16-2.88l3.08-.14c4.34-1.26 1.99-5.45.54-9.04-5.29-13.16 4.67-1.36-1.26-18.76-5.19-15.22-.39-14.38-11.51-26.36-3.53-3.8-11.51-7.95-17.66-7.28-3.35-.49-3.1-1.56-3.34.94l.22.47-5 1.76c-8.93 2.85.96.95-6.98 4.24-7.09 2.93-2.02 2.84-11.44 12.58-11.17 11.54 7.86 38.33 6.36 44.64-.92 3.87-1.43 2.77-2.62 3.95-1.19 1.18-1.56 1.74-2.58 3.03l-14.8 8.32c-3.18.98-7.26-.37-10.78-.06-8.43.74-10.15 5.35-18.19 4.37-7.5-.92-13.55-1.51-20.77-.51-8.54 1.18-29.42 5.78-35.5 9.3-4.71 2.73-3.98 13.24-4.6 19.69-3.62 37.57 2.27 45.96 2.07 62.03-.12 9.08-.53 11.65 3.16 19l7.8 14.37c3.38.21 2.58-.11 3.63-3.62.75 2.45.79 2.45 1.43 3.22 4.22.36 3.08-1.23 3.55-3.03 2.02 1.77 1.28 1.7 4.35.38l1.41-1.66 3.11.43c4.73-4.65 4.86-10.15 2.53-15.52 6.23.95 13.14 3.74 14.79-2.85-30.2-5.86-30.28-9.48-29.32-26.16-.09-20.17 3.04-29.17 9.59-46.85 6.48 1 12.19 2.34 18.94 2.94 6.53.58 11.97-.02 18.33.21 1.45 15.1-1.44 30.3.48 46.01 1 8.15-.14 14.76-.13 23.07.001 9.29-3.01 11.47-5.57 19.43-4.92 15.33-15.53 20.31-13.97 39.8.63 7.86-1.94 11.97-6.2 18.28-7.09 10.48-13.22 22.24-18.62 33.88-10.85 23.34-33.14 5.78-52.1 20.59-7.23 5.66-23.51 11.15-33.63 14.81-14.61 5.3-14.74 5.99-23.07 1.2-5.46-3.14-6.95-3.5-14.93-4.35-5.68 5.02-5.64 8.15-7.44 17.31-3.37 17.11-13.65 17.52-17.7 32.04-1.66 5.95-4.51 14.88-1.58 20.02 8.69 2.21 5.44-2.59 19.66-16.88 3.27-3.29 6.22-5.07 10.64-7.41 6.57-3.47 7.66.21 13.98-1.93.2-4.2-.49-2.22-2.47-5.69 3.21-2.91 17.12-7.72 22.66-9.57 7.19-2.41 72.19-14.55 79-14.63 12.76-.14 18.72 1.57 25.7-6.14 6.46-7.15 11.46-10.36 17.91-15.93 6.3-5.44 12.09-9.46 18.12-15.68 4.79-4.94 11.76-13.78 16.1-17.57 8.44 2.42 18.65 8.18 27.82 11.3 10.69 3.63 17.83 5.09 26.39 11.36-.3 3.74-7.11 17.08-8.99 22.58-3.04 8.91-3.29 18.3-5.37 27.42-2.59 11.35-10.82 39.53-16.69 46.95-1.22 1.55-9.83 4.52-11.72 19.33-1.01 7.88 9.42 11.91 14.02 15.9 6.04 5.22 7.86 9.76 15.9 14.63 6.84 4.13 14.25 5.6 22.42 7.8 7.76 1.21 18.35-1.96 8.54-9.15-5.1-2.91-9.74-6.46-12.04-12.03-7.64-10.86-7.45-13.58-6.97-16.77l-2.1-8.77c-.21.16-1.69-.3-1.7-1.17-.82-.77-.73-.72-.71-1.77-1.95-5.2 1.67-18.55 3.65-22.5l8.32-14.52c.3-.35.58-.65.84-.9 3.04-5.4 5.97-10.9 8.93-16.35 6.99-13.04 13.96-26.32 16.65-30.28 1.13-1.67 2.35-3.36 3.59-5.11l3.58-5.81c3.9-7.01 5.16-8.75 6.09-16.26l-.41-1.66c-4-6.08-3.04-11.7-12.37-20.46-16.84-15.83-40.99-35.49-62.85-44.39 1.82-7.88 6.31-13.29 9.08-20.86 4.29-11.72 15.87-35.78 16.71-41.9.81-5.91 3.74-16.6 6.15-22.01 3.12 3.7 5.17 10.37 7.37 15.13 1.81 3.9 9.24 8.52 15.25 9.58 5.06-2.15 10.85-9.58 14.23-14.6l20.71-38.49c5.82-11.47 5.14-15.33-1.87-19.28l-4.05-1.03.15-2.76c-2.31-3.81-3.1-1.15-5.52-1.49-4.25-.6 2.33-2.12-6.16-2.43-1.91 1.52-3.99 3.55-4.75 7.11-1.53 7.16 2.8 2.74-.09 8.2-5.06-1.59-2.84-4.49-4.96-9.04-1.9-4.1-8.27-9.09-8.43-2.29-.09 3.62 3.03 2.38 4.96 15 .38 2.48 1.82 6.25 2.53 8.6 1.39 4.66 2.63 4.38 3.87 7.48-1.13 2.75-4.14 6.53-6.17 7.37-2.69-3.13-4.31-10.01-7.14-13.96-3.41-4.75-5.57-7.42-6.64-14.5-1.8-11.92-6.81-23.47-13.91-27.91" fill="url(#0)"/><path d="m616.23 393.69c1.02 12.43 9.78 16.53 16.09 4.18 12.21-30.07 40.9-65.52 59.49-73.93 11.66-5.27 17.14 2.18 17.84 13.54 2.36 38.37-49.24 93.05-78 119.23-15.37 14.01 2.48 27.89 16.5 13.87 30.01-30.01 77.75-83.98 79.23-129.35.54-16.32-5.71-35.66-25.05-36.27-26.81-.85-58.28 37.45-71.56 57.76-4.28-33.61-24.57-120.76-74.69-96.05-17.25 8.5-23.26 26.05-23.37 46.12-.38 67.1 49.91 143.59 91.39 192.69 9.75 9.2 12.6 1.43 7.15-6.86-40.06-48.73-82.62-120.94-81.34-186.49.25-13.12 3.38-23.34 10.92-27.69 43.48-25.1 53.51 90.14 55.4 109.25" fill="#c00242"/></svg>